<?xml version="1.0" encoding="UTF-8"?>
<svg version="1.1" xmlns="http://www.w3.org/2000/svg" width="512" height="512">
<path d="M0 0 C1.01823853 0.00215515 2.03647705 0.0043103 3.08557129 0.00653076 C17.70747424 0.05622604 32.00633932 0.36188758 46.375 3.3125 C47.89383789 3.61051514 47.89383789 3.61051514 49.44335938 3.91455078 C97.33223881 13.49089201 141.79848903 35.78506667 176.87475586 69.90942383 C178.93859956 71.83959628 181.16756034 73.55032168 183.375 75.3125 C184.47309154 76.46716769 185.5374861 77.65499631 186.5625 78.875 C189.33259955 82.1297174 192.19946722 85.25937713 195.125 88.375 C201.1093165 94.95684281 206.30422091 102.01172445 211.375 109.3125 C212.04184814 110.26672852 212.04184814 110.26672852 212.72216797 111.24023438 C225.77673454 130.10901967 235.95320481 150.62667186 243.375 172.3125 C243.64892578 173.0869043 243.92285156 173.86130859 244.20507812 174.65917969 C253.43500283 200.86994176 256.80341484 227.91222614 256.75 255.5625 C256.74918427 257.15105301 256.74918427 257.15105301 256.74835205 258.771698 C256.58274811 329.00962715 227.79894752 391.24474097 179.375 441.3125 C177.49561188 443.10564469 175.58592766 444.80348147 173.58984375 446.46484375 C171.84354723 447.9216308 170.13502023 449.42369359 168.44140625 450.94140625 C142.74643854 473.86658234 111.2138556 491.15538142 78.375 501.3125 C77.24118896 501.66368896 77.24118896 501.66368896 76.08447266 502.02197266 C67.56724042 504.61240769 58.97040003 506.71437025 50.25 508.5 C49.49976563 508.6549292 48.74953125 508.8098584 47.9765625 508.96948242 C32.3127607 512.02798624 16.98244069 512.71819876 1.0625 512.6875 C0.001521 512.68695618 -1.05945801 512.68641235 -2.15258789 512.68585205 C-18.6391791 512.64703011 -34.47176367 511.87963932 -50.625 508.3125 C-51.64835449 508.09287598 -52.67170898 507.87325195 -53.72607422 507.64697266 C-98.89354281 497.73831979 -139.94827683 476.50387258 -173.765625 444.92578125 C-175.74196714 443.11953413 -177.70890091 441.40114346 -179.77734375 439.7109375 C-182.08579368 437.76664634 -184.0079271 435.92353516 -185.9375 433.625 C-188.49457821 430.61568744 -191.12156708 427.70258138 -193.8125 424.8125 C-223.21842707 392.06725579 -242.23635664 350.92250253 -251.375 308.125 C-251.57383789 307.20017822 -251.77267578 306.27535645 -251.97753906 305.32250977 C-255.26941369 289.11581484 -256.0003085 273.18212105 -255.9375 256.6875 C-255.93534485 255.66959381 -255.9331897 254.65168762 -255.93096924 253.60293579 C-255.88129854 238.99386477 -255.63040191 224.66174147 -252.625 210.3125 C-252.42632324 209.33764648 -252.22764648 208.36279297 -252.02294922 207.35839844 C-241.77138226 158.35053302 -219.43217348 114.34635801 -184.625 78.3125 C-184.02606934 77.69165527 -183.42713867 77.07081055 -182.81005859 76.43115234 C-175.14623497 68.52999741 -167.40501606 60.98483045 -158.625 54.3125 C-158.08472168 53.89581055 -157.54444336 53.47912109 -156.98779297 53.04980469 C-125.1187531 28.55165293 -88.56685217 12.06060062 -49.1875 4 C-48.46860596 3.85264404 -47.74971191 3.70528809 -47.0090332 3.5534668 C-31.36274321 0.57960898 -15.88931915 -0.06049808 0 0 Z " fill="#29AF33" transform="translate(255.625,-0.3125)"/>
<path d="M0 0 C2.59372282 2.68675483 2.29620699 4.49356708 2.26763916 8.18595886 C2.26733704 9.48708115 2.26703491 10.78820343 2.26672363 12.12875366 C2.24629692 13.54927683 2.22543293 14.96979378 2.2041626 16.39030457 C2.19670129 17.84332502 2.19100784 19.29635554 2.18701172 20.74938965 C2.17174638 24.57191297 2.1324578 28.39382735 2.0881958 32.21611023 C2.04006382 36.80318365 2.02171327 41.39046081 1.99838257 45.97771454 C1.95960619 52.94509501 1.88296136 59.91113967 1.8135376 66.87858582 C12.7035376 66.87858582 23.5935376 66.87858582 34.8135376 66.87858582 C34.8135376 59.94858582 34.8135376 53.01858582 34.8135376 45.87858582 C33.1635376 45.21858582 31.5135376 44.55858582 29.8135376 43.87858582 C26.40876035 41.00344058 25.06236349 39.44447288 24.3604126 35.02702332 C24.19191904 30.17681592 24.40668764 26.73749129 26.5010376 22.31608582 C30.54944763 18.04884281 33.31082766 16.67791474 39.1885376 16.31608582 C44.2667463 16.44629629 46.86266035 17.67920344 50.47369385 21.17546082 C53.38520362 24.87638869 54.26370091 27.9477611 54.12994385 32.71842957 C53.38404517 37.81079958 51.26796251 41.77045255 47.1885376 44.87858582 C44.8135376 45.87858582 44.8135376 45.87858582 42.8135376 45.87858582 C42.8135376 52.80858582 42.8135376 59.73858582 42.8135376 66.87858582 C47.2685376 66.38358582 47.2685376 66.38358582 51.8135376 65.87858582 C54.08269853 63.09990877 54.08269853 63.09990877 55.8135376 59.87858582 C59.94985905 56.22323197 63.18760747 55.2287722 68.56744385 55.49186707 C73.25643313 56.2991887 76.48245163 58.46162333 79.7510376 61.94108582 C81.82075032 67.66323276 81.49821119 73.52502034 79.8135376 79.31608582 C76.62444938 83.40210509 72.80818357 85.33003384 67.72369385 86.26139832 C62.61450028 86.55559372 59.65899463 85.09803821 55.8135376 81.87858582 C53.39717466 79.22058658 52.8135376 78.52564248 52.8135376 74.87858582 C35.6535376 74.87858582 18.4935376 74.87858582 0.8135376 74.87858582 C0.8135376 83.78858582 0.8135376 92.69858582 0.8135376 101.87858582 C10.0535376 101.87858582 19.2935376 101.87858582 28.8135376 101.87858582 C29.3085376 99.89858582 29.3085376 99.89858582 29.8135376 97.87858582 C31.70372375 95.06635764 33.74414538 92.41328192 36.8135376 90.87858582 C42.39746893 90.36867592 47.25405848 90.13988518 52.3760376 92.56608582 C56.22993525 96.22234769 57.9670661 98.85975 58.2510376 104.19108582 C58.06341579 109.07741028 56.75801017 112.9587567 53.8135376 116.87858582 C49.57622091 120.10701758 45.3944046 120.40146788 40.21588135 120.23014832 C36.58981312 119.69950419 34.50783278 118.31002293 31.8135376 115.87858582 C28.8135376 111.67858582 28.8135376 111.67858582 28.8135376 108.87858582 C19.9035376 108.87858582 10.9935376 108.87858582 1.8135376 108.87858582 C1.8135376 117.78858582 1.8135376 126.69858582 1.8135376 135.87858582 C18.6435376 135.87858582 35.4735376 135.87858582 52.8135376 135.87858582 C53.1435376 134.22858582 53.4735376 132.57858582 53.8135376 130.87858582 C56.24047684 127.45712101 59.1439211 125.20513541 63.2901001 124.39421082 C68.44137587 124.23858315 72.5318264 124.82022067 76.8135376 127.87858582 C80.28341651 131.53108993 81.11366946 134.47515411 81.3135376 139.37858582 C81.12714063 144.27816335 80.16566448 147.15400039 76.8135376 150.87858582 C72.81067075 154.39625668 69.21857963 155.23248801 63.8760376 155.16374207 C59.56837144 154.56817459 56.76621669 151.92653282 53.9385376 148.81608582 C52.8135376 146.87858582 52.8135376 146.87858582 52.8135376 143.87858582 C49.5135376 143.87858582 46.2135376 143.87858582 42.8135376 143.87858582 C42.8135376 150.80858582 42.8135376 157.73858582 42.8135376 164.87858582 C44.4635376 165.20858582 46.1135376 165.53858582 47.8135376 165.87858582 C50.78625421 168.45343884 53.6010661 171.83559064 54.0166626 175.83171082 C54.1213007 180.95897765 53.77021325 184.4945495 50.8135376 188.87858582 C46.11218064 193.227341 42.34140329 194.24104179 36.09869385 194.15983582 C32.51761371 193.71908749 30.48314274 192.23038082 27.8135376 189.87858582 C23.91520102 184.46371257 24.00915329 179.33989016 24.8135376 172.87858582 C26.28506842 169.10598473 28.43363639 167.13185328 31.8135376 164.87858582 C32.8035376 164.87858582 33.7935376 164.87858582 34.8135376 164.87858582 C34.8135376 157.94858582 34.8135376 151.01858582 34.8135376 143.87858582 C23.9235376 143.87858582 13.0335376 143.87858582 1.8135376 143.87858582 C1.83674072 148.54757019 1.85994385 153.21655457 1.8838501 158.02702332 C1.8940659 160.98015385 1.90369358 163.93326269 1.91119385 166.88639832 C1.92316202 171.57654835 1.93733929 176.2666205 1.9644165 180.95671082 C1.98610421 184.7368162 1.99809758 188.5168381 2.00329208 192.29700089 C2.00699519 193.74114421 2.0142262 195.18528282 2.02499771 196.62939072 C2.03945776 198.64779476 2.04035405 200.66628234 2.04058838 202.68473816 C2.0450296 203.83501495 2.04947083 204.98529175 2.05404663 206.17042542 C1.8135376 208.87858582 1.8135376 208.87858582 -0.1864624 210.87858582 C-3.06838552 211.13999544 -5.85013761 211.27937069 -8.73724365 211.31999207 C-9.58820114 211.33376389 -10.43915863 211.34753571 -11.31590271 211.36172485 C-13.11896238 211.3850211 -14.92210863 211.40227417 -16.72528076 211.41398621 C-19.47892352 211.44089003 -22.22871148 211.51576006 -24.98138428 211.59147644 C-26.73331154 211.60813589 -28.48526919 211.62190159 -30.23724365 211.63249207 C-31.05824051 211.66234695 -31.87923737 211.69220184 -32.72511292 211.72296143 C-36.08420225 211.69723945 -38.28337491 211.65848745 -40.88723755 209.4098053 C-42.31846856 207.568369 -43.39633859 206.07614586 -44.1864624 203.87858582 C-43.79871556 201.10269212 -42.92014296 199.3565997 -41.6239624 196.81608582 C-39.25303812 191.34652783 -39.09242471 185.14461011 -40.9833374 179.49967957 C-42.602525 176.11806855 -44.29489448 173.32019036 -47.1864624 170.87858582 C-49.81216944 170.62788669 -49.81216944 170.62788669 -52.1864624 170.87858582 C-51.67693528 175.33694811 -49.98890839 177.46310477 -47.1864624 180.87858582 C-45.76486248 184.43258563 -45.92117074 188.09817958 -46.1864624 191.87858582 C-47.6864624 194.81608582 -47.6864624 194.81608582 -49.1864624 196.87858582 C-56.39929553 196.33762333 -61.76598349 192.73779423 -66.4989624 187.44108582 C-72.33098195 179.98817801 -72.55934958 174.18695458 -72.1864624 164.87858582 C-71.53419678 164.70842957 -70.88193115 164.53827332 -70.2098999 164.36296082 C-61.22820606 161.96563255 -61.22820606 161.96563255 -54.71380615 155.64421082 C-51.93600808 150.53739541 -50.55632943 146.6758092 -51.1864624 140.87858582 C-52.5064624 140.54858582 -53.8264624 140.21858582 -55.1864624 139.87858582 C-55.33341553 140.44706238 -55.48036865 141.01553894 -55.6317749 141.60124207 C-57.61616473 148.43256109 -60.47250601 153.70456256 -66.7489624 157.37858582 C-69.67553102 157.97890758 -71.32598804 157.74188213 -74.1864624 156.87858582 C-79.5845402 152.28469093 -83.61485754 146.46036657 -86.1864624 139.87858582 C-86.54224365 138.99042175 -86.8980249 138.10225769 -87.2645874 137.18717957 C-89.78310584 128.14825956 -89.60529706 116.47032233 -85.45599365 107.99577332 C-80.208761 99.24500379 -80.208761 99.24500379 -75.8739624 96.31608582 C-71.75460291 95.64549241 -68.19095138 95.58163947 -64.1864624 96.87858582 C-61.93495576 98.56218112 -60.03451777 100.33695437 -58.1083374 102.38249207 C-55.67027346 104.28041583 -54.2007396 104.16442245 -51.1864624 103.87858582 C-51.47398766 100.52412444 -52.11284196 98.97005364 -54.2489624 96.31608582 C-62.50424599 89.46595688 -69.82251184 89.39277563 -80.1864624 89.87858582 C-80.98332847 88.33960021 -81.77369381 86.79724798 -82.5614624 85.25358582 C-83.00232178 84.39507019 -83.44318115 83.53655457 -83.8973999 82.65202332 C-87.69999536 74.47068158 -88.6944297 66.44594722 -86.3114624 57.64811707 C-83.73824346 50.96959816 -80.28804298 45.87725267 -75.1864624 40.87858582 C-72.65816628 42.09631807 -70.46872776 43.36195813 -68.1239624 44.94108582 C-62.72838625 48.49987009 -57.48325712 48.53735374 -51.1864624 47.87858582 C-48.2225419 46.81805801 -45.90051836 45.51726111 -43.1864624 43.87858582 C-43.5164624 42.22858582 -43.8464624 40.57858582 -44.1864624 38.87858582 C-46.44444064 39.38035876 -48.38889511 39.97159544 -50.4989624 40.94108582 C-54.4876954 42.3325043 -58.09624031 42.75166212 -62.0848999 41.08561707 C-68.50369419 37.55121768 -68.50369419 37.55121768 -70.1864624 34.87858582 C-71.26309775 28.28419434 -68.68253044 23.29239991 -65.1864624 17.87858582 C-59.56176171 10.85993756 -52.2720891 5.16126253 -43.1864624 3.87858582 C-40.91650822 3.81205726 -38.64477546 3.79314831 -36.3739624 3.81608582 C-35.21251709 3.82510925 -34.05107178 3.83413269 -32.85443115 3.84342957 C-31.97400146 3.85503113 -31.09357178 3.86663269 -30.1864624 3.87858582 C-30.03950928 4.83958191 -30.03950928 4.83958191 -29.8895874 5.81999207 C-28.33325448 14.82257305 -25.88482481 20.41815875 -18.29193115 25.78874207 C-15.05194497 27.46584066 -12.7658945 27.32601483 -9.1864624 26.87858582 C-8.8564624 25.55858582 -8.5264624 24.23858582 -8.1864624 22.87858582 C-8.86193115 22.57565613 -9.5373999 22.27272644 -10.2333374 21.96061707 C-19.7836417 17.47528629 -19.7836417 17.47528629 -22.1864624 12.87858582 C-22.76775139 9.88115652 -23.05363747 6.92691793 -23.1864624 3.87858582 C-7.11523496 -3.64933118 -7.11523496 -3.64933118 0 0 Z " fill="#FBFDFB" transform="translate(264.18646240234375,151.1214141845703)"/>
<path d="M0 0 C2.92104126 -0.30279086 5.58299784 -0.41810841 8.5 -0.375 C9.67755859 -0.39240234 9.67755859 -0.39240234 10.87890625 -0.41015625 C13.15625 -0.3984375 13.15625 -0.3984375 17 0 C19.18994248 3.28491373 19.35277339 4.83095639 19.625 8.6875 C19.69976562 9.68136719 19.77453125 10.67523438 19.8515625 11.69921875 C19.90054688 12.45847656 19.94953125 13.21773437 20 14 C24.14847132 13.46173471 24.14847132 13.46173471 28 11.9375 C30.88022525 10.58739442 32.84838325 10.6173882 36 11 C38.15234375 13.1953125 38.15234375 13.1953125 39.9375 16.125 C40.54464844 17.07632812 41.15179688 18.02765625 41.77734375 19.0078125 C43.25229988 22.61744954 43.2621298 24.32467803 42 28 C39.93359375 29.8984375 39.93359375 29.8984375 37.4375 31.375 C36.61121094 31.87773437 35.78492188 32.38046875 34.93359375 32.8984375 C34.29550781 33.26195312 33.65742188 33.62546875 33 34 C33.34485543 36.8842454 33.78255407 37.8207818 36.06640625 39.703125 C36.89011719 40.21359375 37.71382812 40.7240625 38.5625 41.25 C39.38878906 41.77078125 40.21507812 42.2915625 41.06640625 42.828125 C41.70449219 43.21484375 42.34257812 43.6015625 43 44 C42.67703533 50.13632872 39.86103748 55.32895465 36 60 C31.21133637 61.29692973 28.23563232 59.20989512 24 57 C22.68 57 21.36 57 20 57 C19.87882812 57.91523438 19.75765625 58.83046875 19.6328125 59.7734375 C19.46523437 60.96195312 19.29765625 62.15046875 19.125 63.375 C18.96257812 64.55835938 18.80015625 65.74171875 18.6328125 66.9609375 C18 70 18 70 16 72 C13.4655329 72.27899696 11.09921582 72.41602263 8.5625 72.4375 C7.88123047 72.47037109 7.19996094 72.50324219 6.49804688 72.53710938 C4.50390625 72.55859375 4.50390625 72.55859375 1 72 C-1.81090785 68.80216556 -2.40914984 65.86275235 -2.6875 61.6875 C-2.75324219 60.80449219 -2.81898437 59.92148437 -2.88671875 59.01171875 C-2.92410156 58.34785156 -2.96148437 57.68398438 -3 57 C-7.14847132 57.53826529 -7.14847132 57.53826529 -11 59.0625 C-13.88022525 60.41260558 -15.84838325 60.3826118 -19 60 C-21.15234375 57.8046875 -21.15234375 57.8046875 -22.9375 54.875 C-23.54464844 53.92367187 -24.15179688 52.97234375 -24.77734375 51.9921875 C-26.25229988 48.38255046 -26.2621298 46.67532197 -25 43 C-22.93359375 41.1015625 -22.93359375 41.1015625 -20.4375 39.625 C-19.61121094 39.12226563 -18.78492187 38.61953125 -17.93359375 38.1015625 C-17.29550781 37.73804688 -16.65742187 37.37453125 -16 37 C-16.15712322 35.08639075 -16.15712322 35.08639075 -17 33 C-19.25827911 31.33083718 -21.61784563 30.03150299 -24.06640625 28.66015625 C-26 27 -26 27 -26.47265625 24.671875 C-25.87992372 21.32122168 -24.66354909 19.07937483 -22.875 16.1875 C-22.29492188 15.21167969 -21.71484375 14.23585937 -21.1171875 13.23046875 C-19 11 -19 11 -15.953125 10.58203125 C-12.49579014 11.07136304 -10.07954055 12.39328319 -7 14 C-5.68 14 -4.36 14 -3 14 C-2.95101562 13.24074219 -2.90203125 12.48148438 -2.8515625 11.69921875 C-2.77679688 10.70535156 -2.70203125 9.71148437 -2.625 8.6875 C-2.55539063 7.70136719 -2.48578125 6.71523437 -2.4140625 5.69921875 C-2 3 -2 3 0 0 Z " fill="#FBFDFB" transform="translate(128,241)"/>
<path d="M0 0 C1.73443359 0.00580078 1.73443359 0.00580078 3.50390625 0.01171875 C6.4375 0.3125 6.4375 0.3125 8.4375 2.3125 C8.6328125 4.9140625 8.6328125 4.9140625 8.5625 7.9375 C8.54445313 8.94039063 8.52640625 9.94328125 8.5078125 10.9765625 C8.48460937 11.74742187 8.46140625 12.51828125 8.4375 13.3125 C12.61043444 12.76018767 12.61043444 12.76018767 16.5 11.25 C19.06417825 10.00926859 20.61204933 9.92895466 23.4375 10.3125 C25.2734375 12.32421875 25.2734375 12.32421875 26.8125 15 C27.59753906 16.30517578 27.59753906 16.30517578 28.3984375 17.63671875 C29.61037204 20.75767799 29.54440658 22.18244359 28.4375 25.3125 C26.20011763 27.37777603 24.15750458 28.95249771 21.4375 30.3125 C21.4375 31.3025 21.4375 32.2925 21.4375 33.3125 C23.20151402 35.0002081 23.20151402 35.0002081 25.4375 36.5 C26.18 37.02980469 26.9225 37.55960937 27.6875 38.10546875 C28.265 38.50378906 28.8425 38.90210938 29.4375 39.3125 C29.02733324 44.78139009 27.152709 49.27855993 23.4375 53.3125 C19.65079081 54.18028752 18.07415616 53.659767 14.6875 51.8125 C13.945 51.3175 13.2025 50.8225 12.4375 50.3125 C11.7775 50.3125 11.1175 50.3125 10.4375 50.3125 C10.31632812 50.99957031 10.19515625 51.68664062 10.0703125 52.39453125 C9.90273438 53.29558594 9.73515625 54.19664062 9.5625 55.125 C9.40007812 56.01832031 9.23765625 56.91164063 9.0703125 57.83203125 C8.4375 60.3125 8.4375 60.3125 6.4375 63.3125 C3.46875 63.640625 3.46875 63.640625 -0.0625 63.5625 C-1.2278125 63.54703125 -2.393125 63.5315625 -3.59375 63.515625 C-6.5625 63.3125 -6.5625 63.3125 -8.5625 62.3125 C-9.1953125 59.58984375 -9.1953125 59.58984375 -9.6875 56.25 C-9.85507812 55.14527344 -10.02265625 54.04054688 -10.1953125 52.90234375 C-10.31648438 52.04769531 -10.43765625 51.19304687 -10.5625 50.3125 C-11.15417969 50.54066406 -11.74585938 50.76882813 -12.35546875 51.00390625 C-13.14566406 51.29136719 -13.93585938 51.57882812 -14.75 51.875 C-15.52730469 52.16503906 -16.30460937 52.45507812 -17.10546875 52.75390625 C-20.0703632 53.42796016 -21.70533025 53.36830989 -24.5625 52.3125 C-26.3984375 50.16796875 -26.3984375 50.16796875 -27.9375 47.5 C-28.46085937 46.62730469 -28.98421875 45.75460937 -29.5234375 44.85546875 C-30.5625 42.3125 -30.5625 42.3125 -30.44921875 40.16015625 C-29.33736439 37.84338483 -28.13913185 36.96265903 -26 35.5625 C-25.35933594 35.13453125 -24.71867187 34.7065625 -24.05859375 34.265625 C-23.31802734 33.79382813 -23.31802734 33.79382813 -22.5625 33.3125 C-22.94770564 30.77339803 -23.26347943 29.58498877 -25.19140625 27.828125 C-26.14853516 27.20164062 -26.14853516 27.20164062 -27.125 26.5625 C-27.76566406 26.13453125 -28.40632813 25.7065625 -29.06640625 25.265625 C-29.56011719 24.95109375 -30.05382812 24.6365625 -30.5625 24.3125 C-30.00260697 20.32237629 -28.80580232 17.7869948 -26.5 14.5 C-25.67822266 13.31470703 -25.67822266 13.31470703 -24.83984375 12.10546875 C-24.41832031 11.51378906 -23.99679687 10.92210937 -23.5625 10.3125 C-18.991221 10.86105348 -14.88814205 11.72994803 -10.5625 13.3125 C-10.52511719 12.62542969 -10.48773438 11.93835938 -10.44921875 11.23046875 C-10.38347656 10.32941406 -10.31773437 9.42835938 -10.25 8.5 C-10.19199219 7.60667969 -10.13398438 6.71335937 -10.07421875 5.79296875 C-9.5625 3.3125 -9.5625 3.3125 -8.4296875 1.5078125 C-5.63128254 -0.28363503 -3.28554078 -0.04772294 0 0 Z " fill="#FAFDFA" transform="translate(380.5625,273.6875)"/>
<path d="M0 0 C2.29141286 -0.05384521 4.58318188 -0.09272087 6.875 -0.125 C8.78925781 -0.15980469 8.78925781 -0.15980469 10.7421875 -0.1953125 C14 0 14 0 16 2 C16.1953125 4.3828125 16.1953125 4.3828125 16.125 7.125 C16.10695313 8.03507813 16.08890625 8.94515625 16.0703125 9.8828125 C16.04710937 10.58148438 16.02390625 11.28015625 16 12 C17.216875 11.505 18.43375 11.01 19.6875 10.5 C25.74700599 8.27711244 25.74700599 8.27711244 29 9 C31.125 11.1875 31.125 11.1875 33 14 C33.598125 14.845625 34.19625 15.69125 34.8125 16.5625 C36 19 36 19 36.0625 21 C34.3576432 24.20914221 31.92224275 25.85304614 29 28 C28.34 28 27.68 28 27 28 C27 28.99 27 29.98 27 31 C27.763125 31.268125 28.52625 31.53625 29.3125 31.8125 C33.5679558 33.69281768 33.5679558 33.69281768 35 36 C35 42.15646361 32.68551691 45.36947876 29 50 C24.80530429 49.40075776 20.99000166 48.42500059 17 47 C16.95101562 47.61488281 16.90203125 48.22976562 16.8515625 48.86328125 C16.77679688 49.67152344 16.70203125 50.47976562 16.625 51.3125 C16.55539062 52.11300781 16.48578125 52.91351563 16.4140625 53.73828125 C16 56 16 56 14 59 C11.06640625 59.43359375 11.06640625 59.43359375 7.5625 59.4375 C6.40878906 59.45683594 5.25507813 59.47617188 4.06640625 59.49609375 C1 59 1 59 -0.8984375 57.26953125 C-2.147477 54.69615554 -2.31285239 53.09132084 -2.1875 50.25 C-2.16042969 49.45078125 -2.13335937 48.6515625 -2.10546875 47.828125 C-2.07066406 47.22484375 -2.03585937 46.6215625 -2 46 C-2.59167969 46.30035156 -3.18335938 46.60070312 -3.79296875 46.91015625 C-4.58316406 47.29042969 -5.37335938 47.67070312 -6.1875 48.0625 C-6.96480469 48.44535156 -7.74210937 48.82820313 -8.54296875 49.22265625 C-11.5415999 50.17134878 -13.05737733 50.09683965 -16 49 C-17.6171875 47.109375 -17.6171875 47.109375 -18.875 44.75 C-19.52082031 43.59757812 -19.52082031 43.59757812 -20.1796875 42.421875 C-21.18103518 39.46551518 -21.0288411 37.93049053 -20 35 C-16.9375 32.6875 -16.9375 32.6875 -14 31 C-14.04768403 29.12119128 -14.04768403 29.12119128 -15 27 C-17.97763043 24.73674754 -17.97763043 24.73674754 -21 23 C-20.57202798 17.29370646 -18.15654048 13.58921384 -15 9 C-10.428721 9.54855348 -6.32564205 10.41744803 -2 12 C-2.04125 10.7625 -2.0825 9.525 -2.125 8.25 C-2.2361216 4.91635209 -1.65876079 2.8995661 0 0 Z " fill="#FAFDFA" transform="translate(347,150)"/>
<path d="M0 0 C4.55555556 0.55555556 4.55555556 0.55555556 6 2 C6.07205511 3.68608966 6.08386068 5.37500659 6.0625 7.0625 C6.05347656 7.98160156 6.04445313 8.90070313 6.03515625 9.84765625 C6.02355469 10.55792969 6.01195312 11.26820313 6 12 C6.69867188 11.97679687 7.39734375 11.95359375 8.1171875 11.9296875 C9.02726562 11.91164062 9.93734375 11.89359375 10.875 11.875 C12.23238281 11.84019531 12.23238281 11.84019531 13.6171875 11.8046875 C16 12 16 12 18 14 C18.1875 16.5625 18.1875 16.5625 18 19 C17 20 17 20 14.49609375 20.09765625 C13.48675781 20.08605469 12.47742188 20.07445312 11.4375 20.0625 C10.42558594 20.05347656 9.41367187 20.04445313 8.37109375 20.03515625 C7.19740234 20.01775391 7.19740234 20.01775391 6 20 C6.03480469 20.68707031 6.06960938 21.37414062 6.10546875 22.08203125 C6.13253906 22.98308594 6.15960938 23.88414062 6.1875 24.8125 C6.23970703 26.15248047 6.23970703 26.15248047 6.29296875 27.51953125 C5.95081002 30.41647515 5.24606427 31.22555028 3 33 C-0.875 31.125 -0.875 31.125 -2 30 C-2.07205511 28.31391034 -2.08386068 26.62499341 -2.0625 24.9375 C-2.05347656 24.01839844 -2.04445313 23.09929687 -2.03515625 22.15234375 C-2.02355469 21.44207031 -2.01195312 20.73179687 -2 20 C-2.78246094 20.01160156 -3.56492187 20.02320313 -4.37109375 20.03515625 C-5.38300781 20.04417969 -6.39492188 20.05320312 -7.4375 20.0625 C-8.44683594 20.07410156 -9.45617187 20.08570313 -10.49609375 20.09765625 C-13 20 -13 20 -14 19 C-14.1875 16.5625 -14.1875 16.5625 -14 14 C-12 12 -12 12 -9.6171875 11.8046875 C-8.71226562 11.82789063 -7.80734375 11.85109375 -6.875 11.875 C-5.50988281 11.90207031 -5.50988281 11.90207031 -4.1171875 11.9296875 C-3.41851562 11.95289063 -2.71984375 11.97609375 -2 12 C-2.02320313 11.30132812 -2.04640625 10.60265625 -2.0703125 9.8828125 C-2.08835937 8.97273437 -2.10640625 8.06265625 -2.125 7.125 C-2.14820313 6.22007812 -2.17140625 5.31515625 -2.1953125 4.3828125 C-2 2 -2 2 0 0 Z " fill="#ECF8ED" transform="translate(362,241)"/>
<path d="M0 0 C2.60131241 2.17784295 3.49950627 3.18475203 4.6875 6.25 C5.02800529 11.13057582 4.35077491 14.43366164 1.25 18.25 C-2.38169164 21.08449104 -4.61615429 21.59892607 -9.27734375 21.53125 C-12.54196589 21.08009301 -14.12435064 19.63122136 -16.3125 17.25 C-18.35219799 13.55911793 -18.82434637 10.43007873 -18.3125 6.25 C-16.67814595 3.21477105 -15.256947 0.96647703 -12.5 -1.125 C-7.73869727 -2.48537221 -4.38912283 -2.31878187 0 0 Z " fill="#30B13A" transform="translate(143.3125,266.75)"/>
<path d="M0 0 C2.475 0.495 2.475 0.495 5 1 C5 4.96 5 8.92 5 13 C6.959375 12.979375 8.91875 12.95875 10.9375 12.9375 C12.95832876 12.91622812 14.98035801 12.92755947 17 13 C18 14 18 14 18.125 16.5 C18 19 18 19 17 20 C12.99779347 20.14355117 9.00558317 20.04216403 5 20 C5 23.96 5 27.92 5 32 C2.525 32.495 2.525 32.495 0 33 C-2 31 -2 31 -2.1953125 28.3984375 C-2.17210937 27.40070313 -2.14890625 26.40296875 -2.125 25.375 C-2.10695312 24.37210937 -2.08890625 23.36921875 -2.0703125 22.3359375 C-2.04710937 21.56507813 -2.02390625 20.79421875 -2 20 C-2.77085937 20.02320313 -3.54171875 20.04640625 -4.3359375 20.0703125 C-5.33882812 20.08835937 -6.34171875 20.10640625 -7.375 20.125 C-8.37273437 20.14820313 -9.37046875 20.17140625 -10.3984375 20.1953125 C-13 20 -13 20 -15 18 C-14.46428571 14.46428571 -14.46428571 14.46428571 -13 13 C-11.14712498 12.92773498 -9.29166122 12.9161878 -7.4375 12.9375 C-6.42558594 12.94652344 -5.41367188 12.95554687 -4.37109375 12.96484375 C-3.19740234 12.98224609 -3.19740234 12.98224609 -2 13 C-2.02320313 12.22914063 -2.04640625 11.45828125 -2.0703125 10.6640625 C-2.08835938 9.66117187 -2.10640625 8.65828125 -2.125 7.625 C-2.14820313 6.62726563 -2.17140625 5.62953125 -2.1953125 4.6015625 C-2 2 -2 2 0 0 Z " fill="#F9FCF9" transform="translate(164,325)"/>
<path d="M0 0 C2.475 0.495 2.475 0.495 5 1 C5 4.96 5 8.92 5 13 C6.959375 12.979375 8.91875 12.95875 10.9375 12.9375 C12.95832876 12.91622812 14.98035801 12.92755947 17 13 C18 14 18 14 18.125 16.5 C18 19 18 19 17 20 C12.99779347 20.14355117 9.00558317 20.04216403 5 20 C5 23.96 5 27.92 5 32 C2.525 32.495 2.525 32.495 0 33 C-2 31 -2 31 -2.1953125 28.3984375 C-2.17210937 27.40070313 -2.14890625 26.40296875 -2.125 25.375 C-2.10695312 24.37210938 -2.08890625 23.36921875 -2.0703125 22.3359375 C-2.04710937 21.56507813 -2.02390625 20.79421875 -2 20 C-2.77085937 20.02320313 -3.54171875 20.04640625 -4.3359375 20.0703125 C-5.33882812 20.08835938 -6.34171875 20.10640625 -7.375 20.125 C-8.37273437 20.14820313 -9.37046875 20.17140625 -10.3984375 20.1953125 C-13 20 -13 20 -15 18 C-14.46428571 14.46428571 -14.46428571 14.46428571 -13 13 C-11.14712498 12.92773498 -9.29166122 12.9161878 -7.4375 12.9375 C-6.42558594 12.94652344 -5.41367188 12.95554688 -4.37109375 12.96484375 C-3.19740234 12.98224609 -3.19740234 12.98224609 -2 13 C-2.02320313 12.22914063 -2.04640625 11.45828125 -2.0703125 10.6640625 C-2.08835938 9.66117188 -2.10640625 8.65828125 -2.125 7.625 C-2.14820313 6.62726563 -2.17140625 5.62953125 -2.1953125 4.6015625 C-2 2 -2 2 0 0 Z " fill="#F8FCF8" transform="translate(157,159)"/>
<path d="M0 0 C2.475 0.495 2.475 0.495 5 1 C5 4.96 5 8.92 5 13 C8.96 13 12.92 13 17 13 C17.495 15.475 17.495 15.475 18 18 C16 20 16 20 13.3984375 20.1953125 C12.40070313 20.17210937 11.40296875 20.14890625 10.375 20.125 C8.87066406 20.09792969 8.87066406 20.09792969 7.3359375 20.0703125 C6.56507813 20.04710937 5.79421875 20.02390625 5 20 C5.02320313 20.77085937 5.04640625 21.54171875 5.0703125 22.3359375 C5.09738281 23.84027344 5.09738281 23.84027344 5.125 25.375 C5.14820313 26.37273437 5.17140625 27.37046875 5.1953125 28.3984375 C5 31 5 31 3 33 C-0.53571429 32.46428571 -0.53571429 32.46428571 -2 31 C-2.07226502 29.14712498 -2.0838122 27.29166122 -2.0625 25.4375 C-2.05347656 24.42558594 -2.04445313 23.41367187 -2.03515625 22.37109375 C-2.02355469 21.58863281 -2.01195312 20.80617188 -2 20 C-2.77085937 20.02320313 -3.54171875 20.04640625 -4.3359375 20.0703125 C-5.33882813 20.08835937 -6.34171875 20.10640625 -7.375 20.125 C-8.37273437 20.14820313 -9.37046875 20.17140625 -10.3984375 20.1953125 C-13 20 -13 20 -15 18 C-14.67 16.35 -14.34 14.7 -14 13 C-10.04 13 -6.08 13 -2 13 C-2.04125 11.22625 -2.0825 9.4525 -2.125 7.625 C-2.1953125 4.6015625 -2.1953125 4.6015625 -2 2 C-1.34 1.34 -0.68 0.68 0 0 Z " fill="#F9FCF9" transform="translate(341,322)"/>
<path d="M0 0 C3.02508145 1.73602105 5.41790069 3.83580137 7 7 C7.04259733 11.41308343 6.80364944 14.96303299 4.0625 18.5 C0.21074713 21.30127481 -3.32511705 21.67167859 -8 21 C-10.8100346 19.20636089 -12.50940468 17.98119065 -14 15 C-14.55512815 10.36786507 -14.6364242 7.01827873 -12.125 3 C-8.48407397 -0.42675391 -4.8582835 -0.82924319 0 0 Z " fill="#2EB138" transform="translate(384,295)"/>
<path d="M0 0 C2.79750031 2.18341487 3.75038246 3.67510688 4.40625 7.15625 C4.70150462 11.58506933 4.45078467 13.43058778 1.625 17 C-2.17123386 19.89236866 -4.20194585 20.55362163 -9 20 C-12.52066118 17.94074535 -14.43455006 16.73718786 -15.703125 12.83984375 C-16.28206927 9.07041312 -16.25412196 6.62861749 -14.8125 3.0625 C-10.58033264 -1.75341459 -5.87728734 -1.62838603 0 0 Z " fill="#32B23B" transform="translate(360,170)"/>
<path d="M0 0 C1.1446875 0.3403125 1.1446875 0.3403125 2.3125 0.6875 C3 3 3 3 3.3125 5.6875 C2.1875 7.5625 2.1875 7.5625 0.3125 8.6875 C-2.375 8.375 -2.375 8.375 -4.6875 7.6875 C-5.375 5.375 -5.375 5.375 -5.6875 2.6875 C-4.0011022 -0.12316299 -3.27764429 -0.38112143 0 0 Z " fill="#E8F6E9" transform="translate(137.6875,272.3125)"/>
<path d="M0 0 C1.67542976 0.28604898 3.34385343 0.61781233 5 1 C5.625 2.875 5.625 2.875 6 5 C5.34 5.66 4.68 6.32 4 7 C1.375 6.625 1.375 6.625 -1 6 C-1.042721 4.33388095 -1.04063832 2.66617115 -1 1 C-0.67 0.67 -0.34 0.34 0 0 Z " fill="#EBF7EB" transform="translate(378,302)"/>
<path d="M0 0 C2.0625 0.4375 2.0625 0.4375 4 1 C3.67 2.65 3.34 4.3 3 6 C1.35 5.67 -0.3 5.34 -2 5 C-1.125 1.125 -1.125 1.125 0 0 Z " fill="#E9F6EA" transform="translate(353,176)"/>
</svg>
